<?xml version="1.0" encoding="utf-8"?>
<!-- Generator: Adobe Illustrator 16.0.0, SVG Export Plug-In . SVG Version: 6.00 Build 0)  -->
<!DOCTYPE svg PUBLIC "-//W3C//DTD SVG 1.1//EN" "http://www.w3.org/Graphics/SVG/1.1/DTD/svg11.dtd">
<svg version="1.1" id="Layer_1" xmlns="http://www.w3.org/2000/svg" xmlns:xlink="http://www.w3.org/1999/xlink" x="0px" y="0px"
	 width="1156.51px" height="427.46px" viewBox="0 0 1156.51 427.46" enable-background="new 0 0 1156.51 427.46"
	 xml:space="preserve">
<g>
	<defs>
		<rect id="SVGID_1_" width="1156.508" height="427.46"/>
	</defs>
	<clipPath id="SVGID_2_">
		<use xlink:href="#SVGID_1_"  overflow="visible"/>
	</clipPath>
	<path clip-path="url(#SVGID_2_)" fill="#00A4B5" d="M374.492,185.655h28.771v102.95c0,31.544,9.359,45.063,31.543,45.063
		c17.332,0,29.464-8.666,45.41-28.424V185.655h28.423v168.464h-23.57l-2.427-26.345h-1.04
		c-15.598,18.371-32.237,30.504-55.461,30.504c-35.704,0-51.649-22.878-51.649-65.86V185.655z"/>
	<path clip-path="url(#SVGID_2_)" fill="#00A4B5" d="M627.532,181.495c41.25,0,77.993,32.237,77.993,88.738
		c0,55.81-36.743,88.045-77.993,88.045c-41.249,0-77.992-32.235-77.992-88.045C549.54,213.731,586.283,181.495,627.532,181.495
		 M627.532,334.708c29.117,0,48.529-25.998,48.529-64.476c0-38.822-19.412-65.167-48.529-65.167
		c-28.771,0-48.528,26.345-48.528,65.167C579.004,308.71,598.761,334.708,627.532,334.708"/>
	<path clip-path="url(#SVGID_2_)" fill="#00A4B5" d="M751.28,208.879h-24.958v-21.491l26.344-1.734l3.467-47.142h23.918v47.142
		h45.408v23.225h-45.408v93.591c0,20.798,6.585,32.584,25.997,32.584c5.893,0,13.519-2.427,19.065-4.507l5.546,21.49
		c-9.359,3.12-20.798,6.239-31.197,6.239c-36.05,0-48.182-22.877-48.182-56.154V208.879z"/>
	<path clip-path="url(#SVGID_2_)" fill="#00A4B5" d="M949.21,247.354c0-21.49-7.279-42.289-34.664-42.289
		c-19.757,0-37.089,9.013-50.261,18.025l-11.439-19.758c15.599-10.052,39.17-21.838,66.207-21.838
		c41.25,0,58.58,27.385,58.58,69.328v103.297h-23.569l-2.427-20.105h-0.693c-16.292,13.172-35.01,24.265-55.809,24.265
		c-28.424,0-49.568-17.679-49.568-47.836C845.566,273.7,877.457,255.328,949.21,247.354 M903.108,335.4
		c16.291,0,29.81-7.973,46.102-22.53v-46.796c-56.501,6.932-75.566,20.798-75.566,42.289
		C873.644,327.428,886.469,335.4,903.108,335.4"/>
	<path clip-path="url(#SVGID_2_)" fill="#00A4B5" d="M1022.696,132.62c0-11.093,8.666-18.372,19.758-18.372
		c11.093,0,19.759,7.279,19.759,18.372c0,10.746-8.666,18.371-19.759,18.371C1031.362,150.991,1022.696,143.366,1022.696,132.62
		 M1027.896,185.655h28.424v168.464h-28.424V185.655z"/>
	<path clip-path="url(#SVGID_2_)" fill="#00A4B5" d="M1109.696,107.315h28.424v214.913c0,9.014,3.813,12.48,7.972,12.48
		c1.734,0,3.121,0,6.24-0.694l3.813,21.491c-3.813,1.734-8.666,2.773-16.292,2.773c-21.491,0-30.157-13.52-30.157-38.129V107.315z"
		/>
	<path clip-path="url(#SVGID_2_)" fill="#00A4B5" d="M388.985,379.262c-9.672,4.222-22.492,5.133-38.475,4.166
		c-45.871-2.776-63.532-32.658-63.119-37.968c29.263-26.049,46.619-67.982,46.619-122.572v-20.599
		c0-96.078-53.73-152.996-131.595-152.996c-12.087,0-23.596,1.388-34.414,4.096c-0.074,1.153-0.167,2.3-0.29,3.426l-0.01,0.092
		c-1.173,10.766-3.1,19.796-17.295,38.035c-7.832,10.063-18.483,14.292-27.88,18.023c-9.968,3.958-18.603,7.386-25.386,17.383
		c-8.629,16.778-9.622,32.564-10.421,45.282l-0.138,2.173c-0.501,7.726,1.904,22.844,7.469,36.788
		c4.711,11.804,9.977,18.801,14.297,22.184c3.101-1.775,9.856-7.659,12.465-11.652c6.567-10.05,4.65-21.946,4.65-22.833
		c0-66.48,30.053-107.006,76.953-107.006c46.902,0,76.955,40.526,76.955,107.006v20.599c0,60.795-25.137,99.878-65.305,106.119
		c5.557,8.763,19.092,32.203,26.756,41.818c26.173,32.665,75.173,57.03,109.915,57.03c20.491,0,37.794-4.426,47.812-8.979
		L388.985,379.262z"/>
	<path clip-path="url(#SVGID_2_)" fill="#00A4B5" d="M148.1,34.871c-3.146,4.259-13.934,14.191-18.304,18.91
		c-4.369,4.72-18.764,17.687-23.287,14.827c-4.524-2.859-34.753-23.632-47.043-36.113C39.458,12.175,29.514-3.161,25.57,1.116
		c-8.331,9.038-6.864,30.871-0.489,40.98c4.883,7.74,30.909,39.769,35.692,45.791c4.784,6.021,8.072,14.72,4.499,20.1
		c-13.911,20.946-18.659,21.815-30.122,55.775c-16.143,47.826-3.487,102.743,2.997,120.698c0.237,0.656,0.457,1.303,0.665,1.941
		c-4.42-1.183-13.933-0.162-23.096-2.77c-10.872-3.094-14.071-10.459-15.852-6.805c-2.986,6.127,24.299,29.609,35.655,34.42
		c10.7,4.532,16.538,7.923,20.572,15.046c4.033,7.123,4.822,27.505,4.074,33.304c-0.749,5.799-7.179,17.377-8.639,20.345
		c-1.959,3.984,20.064-2.214,26.746-14.471c0.183-0.335,1.299-0.813,2.814-1.218c10.853,7.949,23.828,16.126,29.745,18.817
		c0,0,59.462,33.196,66.942,14.937c0.125-0.307,0.223-0.607,0.308-0.906l9.843-0.057c5.017,0.288,11.702,0.272,17.272-1.122
		c10.89-2.728,18.76-6.591,21.504-14.64c1.139-4.112-4.192-15.319-16.694-31.861c-8.166-10.809-17.645-24.016-36.913-37.899
		c-1.761-1.269-12.995-10.873-12.995-10.873c-8.802-16.268-4.935-23.614-4.784-40.062c0.097-10.54-3.163-40.016-11.648-43.976
		c-8.485-3.959-6.023,2.467-15.075,21.847c-2.074,4.44-10.263,12.694-21.09,15.449c-24.55-7.83-37.93-55.828-36.551-77.118
		c0.904-13.94,1.609-33.361,12.684-54.417c16.76-25.625,42.278-21.463,54.411-37.052c12.615-16.208,13.28-22.724,14.095-30.203
		C153.423,43.348,151.246,30.612,148.1,34.871 M45.17,290.688l0.136,0.828c-0.225-0.221-0.444-0.435-0.657-0.643L45.17,290.688z"/>
</g>
</svg>
